<svg width="24" height="24" viewBox="0 0 24 24" fill="none" xmlns="http://www.w3.org/2000/svg"><path fill-rule="evenodd" clip-rule="evenodd" d="M21.976 12.4C21.768 17.728 17.392 21.992 12.016 22C12.016 22 12.008 22 12 22C11.992 22 11.992 22 11.984 22C6.6 21.992 2.232 17.728 2.024 12.4H2V11.6H2.024C2.232 6.264 6.616 2 12 2C17.384 2 21.768 6.264 21.976 11.6H22V12.4H21.976ZM14.792 12.4H9.208C9.224 13.64 9.328 14.776 9.48 15.792C10.272 15.68 11.12 15.608 12.008 15.608C12.896 15.608 13.728 15.68 14.512 15.792C14.664 14.776 14.768 13.648 14.784 12.408L14.792 12.4ZM14.792 11.6C14.776 10.36 14.672 9.232 14.52 8.216C13.736 8.328 12.896 8.4 12.016 8.4C11.136 8.4 10.28 8.328 9.488 8.216C9.336 9.232 9.232 10.36 9.216 11.6H14.8H14.792ZM21.184 12.4H15.592C15.576 13.648 15.464 14.824 15.304 15.912C17.712 16.352 19.4 17.112 19.584 17.192C20.528 15.816 21.112 14.176 21.192 12.4H21.184ZM19.12 17.8C18.416 17.52 16.992 17.008 15.168 16.688C14.8 18.6 14.224 20.152 13.512 21.064C15.768 20.688 17.736 19.496 19.12 17.8ZM12 21.2C12.792 21.2 13.824 19.48 14.384 16.568C13.64 16.472 12.848 16.408 12.024 16.408C11.2 16.408 10.376 16.472 9.616 16.576C10.176 19.488 11.208 21.208 12 21.208V21.2ZM10.488 21.064C9.776 20.144 9.2 18.6 8.832 16.696C7.008 17.016 5.584 17.52 4.88 17.8C6.264 19.496 8.232 20.688 10.488 21.064V21.064ZM4.424 17.192C4.6 17.112 6.296 16.36 8.704 15.92C8.536 14.832 8.432 13.656 8.416 12.408H2.816C2.896 14.184 3.48 15.824 4.424 17.2V17.192ZM2.816 11.6H8.408C8.424 10.352 8.536 9.176 8.696 8.088C6.28 7.648 4.584 6.888 4.416 6.808C3.472 8.184 2.888 9.824 2.808 11.6H2.816ZM4.88 6.2C5.584 6.48 7.008 6.984 8.832 7.304C9.2 5.392 9.776 3.848 10.488 2.928C8.232 3.304 6.264 4.496 4.88 6.2V6.2ZM12 2.8C11.208 2.8 10.184 4.52 9.616 7.432C10.376 7.536 11.184 7.6 12.024 7.6C12.864 7.6 13.64 7.536 14.384 7.44C13.824 4.528 12.792 2.8 12 2.8ZM13.512 2.936C14.224 3.856 14.8 5.408 15.168 7.32C16.992 7 18.424 6.488 19.12 6.208C17.736 4.512 15.768 3.312 13.512 2.936V2.936ZM19.576 6.816C19.408 6.896 17.712 7.656 15.296 8.096C15.464 9.184 15.568 10.36 15.584 11.608H21.176C21.096 9.832 20.512 8.192 19.568 6.816H19.576Z" fill="#12100B"/></svg>