<svg width="20" height="20" viewBox="0 0 20 20" fill="none" xmlns="http://www.w3.org/2000/svg">
<path d="M10.0004 1.80204C12.6708 1.80204 12.9869 1.81212 14.0416 1.86034C15.0164 1.90505 15.546 2.06768 15.8984 2.20488C16.3652 2.38636 16.6984 2.6029 17.0482 2.95314C17.398 3.30294 17.615 3.63608 17.7964 4.10292C17.9332 4.45535 18.0963 4.98488 18.141 5.95976C18.1892 7.01442 18.1993 7.33047 18.1993 10.0009C18.1993 12.6713 18.1892 12.9873 18.141 14.042C18.0963 15.0169 17.9336 15.5464 17.7964 15.8988C17.615 16.3657 17.3984 16.6988 17.0482 17.0486C16.6984 17.3984 16.3652 17.6154 15.8984 17.7969C15.546 17.9336 15.0164 18.0967 14.0416 18.141C12.9873 18.1892 12.6708 18.1993 10.0004 18.1993C7.33003 18.1993 7.01398 18.1892 5.95932 18.141C4.98444 18.0967 4.45492 17.9336 4.10249 17.7969C3.63565 17.6154 3.3025 17.3988 2.9527 17.0486C2.6029 16.6988 2.38592 16.3657 2.20444 15.8988C2.06768 15.5464 1.90462 15.0169 1.8599 14.042C1.81169 12.9873 1.8016 12.6713 1.8016 10.0009C1.8016 7.33047 1.81169 7.01442 1.8599 5.95976C1.90462 4.98488 2.06724 4.45535 2.20444 4.10292C2.38592 3.63608 2.60246 3.30294 2.9527 2.95314C3.3025 2.60334 3.63565 2.38636 4.10249 2.20488C4.45492 2.06812 4.98444 1.90505 5.95932 1.86034C7.01398 1.81212 7.33003 1.80204 10.0004 1.80204ZM10.0004 0C7.28444 0 6.94385 0.011397 5.87735 0.0600535C4.81305 0.10871 4.08583 0.277912 3.44979 0.524701C2.79227 0.780257 2.23425 1.12217 1.67843 1.67799C1.12261 2.23381 0.780695 2.79183 0.525139 3.44935C0.277912 4.08539 0.10871 4.81261 0.0604918 5.87691C0.011397 6.94385 0 7.28444 0 10.0004C0 12.7164 0.011397 13.057 0.0600535 14.1235C0.10871 15.1878 0.277473 15.915 0.524701 16.5511C0.780257 17.2086 1.12217 17.7666 1.67799 18.3224C2.23381 18.8783 2.79183 19.2202 3.44935 19.4757C4.08539 19.723 4.81217 19.8922 5.87691 19.9404C6.94341 19.989 7.28401 20.0004 10 20.0004C12.716 20.0004 13.0566 19.989 14.1231 19.9404C15.1874 19.8917 15.9146 19.7225 16.5507 19.4757C17.2082 19.2202 17.7662 18.8783 18.322 18.3224C18.8778 17.7666 19.2197 17.2086 19.4753 16.5511C19.7225 15.915 19.8917 15.1878 19.9399 14.1235C19.9886 13.057 20 12.7164 20 10.0004C20 7.28444 19.9886 6.94385 19.9399 5.87735C19.8913 4.81305 19.7225 4.08583 19.4753 3.44979C19.2197 2.79227 18.8778 2.23425 18.322 1.67843C17.7662 1.12261 17.2082 0.780695 16.5507 0.525139C15.9146 0.277912 15.1878 0.10871 14.1231 0.0604918C13.0566 0.0118354 12.716 0.000438347 10 0.000438347" fill="#1E1E1E"/>
<path d="M10.0005 4.86523C7.16436 4.86523 4.86523 7.16436 4.86523 10.0005C4.86523 12.8366 7.16436 15.1357 10.0005 15.1357C12.8366 15.1357 15.1357 12.8366 15.1357 10.0005C15.1357 7.16436 12.8366 4.86523 10.0005 4.86523ZM10.0005 13.3341C8.15941 13.3341 6.66684 11.8415 6.66684 10.0005C6.66684 8.15941 8.15941 6.66684 10.0005 6.66684C11.8415 6.66684 13.3341 8.15941 13.3341 10.0005C13.3341 11.8415 11.8415 13.3341 10.0005 13.3341Z" fill="#1E1E1E"/>
<path d="M16.5386 4.66223C16.5386 5.32501 16.0012 5.86242 15.3384 5.86242C14.6756 5.86242 14.1382 5.32501 14.1382 4.66223C14.1382 3.99945 14.6756 3.46204 15.3384 3.46204C16.0012 3.46204 16.5386 3.99945 16.5386 4.66223Z" fill="#1E1E1E"/>
</svg>
