<svg width="400" height="60" viewBox="0 0 400 60" fill="none" xmlns="http://www.w3.org/2000/svg">
<path d="M55.2915 0H71.799V2.28493C71.5011 2.28493 71.0949 2.28493 70.6074 2.24363C70.1063 2.2161 69.2125 2.24363 67.9125 2.35375C66.6125 2.4501 65.4885 2.64281 64.5135 2.9181C63.5385 3.19339 62.6583 3.66139 61.8593 4.32209C61.0603 4.98279 60.6676 5.82244 60.6676 6.82725V52.4019C60.6676 53.9711 61.5885 55.1411 63.4302 55.8981C65.2719 56.6552 67.1406 57.0131 69.0365 56.958H71.799V59.2429H44.8236V56.958C45.1215 56.958 45.5143 56.958 46.0153 56.9993C46.5163 57.0268 47.3966 56.9993 48.6695 56.8892C49.9424 56.7928 51.0664 56.6001 52.0279 56.3248C53.0029 56.0495 53.8831 55.5816 54.6821 54.9209C55.4811 54.2602 55.8738 53.4343 55.8738 52.4157V5.84997L33.6922 60L12.1064 5.69855V52.4019C12.1064 53.9711 12.9054 55.1411 14.5034 55.8981C16.1013 56.6552 17.6857 57.0131 19.2836 56.958H21.6805V59.2429H0V56.958C0.243754 56.958 0.582301 56.958 1.0021 56.9993C1.4219 57.0268 2.19378 56.9993 3.31776 56.8892C4.44174 56.7928 5.40321 56.6001 6.22926 56.3248C7.05532 56.0495 7.81366 55.5816 8.5043 54.9209C9.19494 54.2602 9.54702 53.4343 9.54702 52.4157V6.84102C9.54702 5.27185 8.74805 4.10186 7.15011 3.3448C5.55217 2.58775 3.96777 2.22987 2.36983 2.28493H0V0H15.7627L34.8162 50.4198L55.2915 0Z" fill="white"/>
<path d="M94.8879 22.7805C92.3962 22.7805 90.5004 23.1521 89.2139 23.8816C87.9139 24.6111 87.1284 25.5058 86.8576 26.5382C86.5868 27.5705 86.3972 28.6167 86.3024 29.649C86.2076 30.6813 85.8555 31.576 85.2597 32.3056C84.6638 33.0351 83.6346 33.4067 82.1992 33.4067C81.4544 33.4067 80.7638 33.159 80.1408 32.6497C79.5179 32.1404 79.2065 31.3833 79.2065 30.3785C79.2065 28.0936 80.7638 25.8913 83.8784 23.7302C86.993 21.5829 90.6629 20.5093 94.9015 20.5093C99.1401 20.5093 102.62 21.4315 105.518 23.276C108.403 25.1204 109.852 27.9697 109.852 31.8238V51.6449C109.852 54.6869 110.84 56.201 112.844 56.201C113.941 56.201 114.862 55.7605 115.607 54.8658C116.352 53.9849 116.826 53.1039 117.029 52.2505L117.327 50.8878L118.898 51.6449C116.961 57.2195 114.442 60 111.355 60C109.513 60 108.051 59.298 106.981 57.9078C105.911 56.5175 105.369 54.6731 105.369 52.4019L106.114 45.6435C105.965 46.2078 105.776 46.841 105.559 47.5843C105.329 48.3138 104.787 49.4838 103.92 51.0805C103.054 52.6772 102.038 54.0812 100.901 55.2925C99.7495 56.5038 98.1245 57.5912 96.0119 58.5547C93.8994 59.5182 91.5431 60 88.9566 60C85.7201 60 82.9169 59.1466 80.5471 57.4535C78.1773 55.7605 76.9991 53.2829 76.9991 50.0482C76.9991 47.309 77.6898 45.1067 79.0846 43.3999C80.4794 41.7068 82.2398 40.5506 84.3524 39.9449C86.4649 39.3393 88.7535 38.8162 91.191 38.3895C93.6285 37.9628 95.9036 37.6325 98.0297 37.3985C100.142 37.1783 101.903 36.5864 103.297 35.6504C104.692 34.7144 105.383 33.4343 105.383 31.81C105.383 29.4288 104.435 27.3365 102.539 25.5058C100.643 23.6889 98.0974 22.7667 94.915 22.7667L94.8879 22.7805ZM105.342 37.137C103.893 38.0454 102.079 38.6924 99.8849 39.0778C97.6911 39.4632 95.6869 39.7109 93.8723 39.8348C92.0577 39.9587 90.2837 40.234 88.5639 40.6745C86.8441 41.1012 85.4899 42.0234 84.4878 43.4136C83.4857 44.8039 82.9982 46.7997 82.9982 49.3737C82.9982 52.2643 83.743 54.3703 85.2326 55.7192C86.7222 57.0681 88.6993 57.7288 91.1368 57.7288C93.5744 57.7288 95.7682 57.0406 97.7182 55.6779C99.6547 54.3152 101.158 52.6222 102.201 50.585C103.243 48.5616 104.029 46.5795 104.557 44.6662C105.085 42.7392 105.342 41.0186 105.342 39.5045V37.137Z" fill="white"/>
<path d="M118.789 23.5375V21.2526H121.037C127.51 21.2526 130.747 15.4026 130.747 3.71645H132.995V21.2663H148.013V23.5513H132.995V46.3317C132.995 49.5664 133.496 52.0303 134.484 53.6958C135.486 55.3613 137.22 56.201 139.712 56.201C141.404 56.201 142.88 55.788 144.153 54.9484C145.426 54.1087 146.388 53.1039 147.024 51.9064C147.674 50.7226 148.175 49.5251 148.554 48.3414C148.934 47.1576 149.164 46.1253 149.259 45.2719L149.408 44.0606L150.897 44.8176C150.653 46.2354 150.288 47.6944 149.814 49.181C149.34 50.6813 148.636 52.2918 147.688 54.0399C146.74 55.788 145.44 57.2195 143.801 58.3345C142.163 59.4494 140.294 60 138.195 60C135.202 60 132.846 58.9264 131.099 56.7791C129.352 54.6318 128.485 51.6586 128.485 47.8596V23.5375H118.776H118.789Z" fill="white"/>
<path d="M162.123 20.5093V52.4019C162.123 53.4205 162.394 54.2464 162.949 54.9071C163.491 55.5678 164.1 56.0358 164.737 56.3111C165.387 56.5864 166.132 56.7791 166.985 56.8754C167.824 56.9718 168.434 57.0131 168.772 56.9855C169.125 56.958 169.395 56.9443 169.598 56.9443V59.2292H150.179V56.9443H152.048C153.294 56.9993 154.553 56.6414 155.826 55.8844C157.099 55.1273 157.736 53.9573 157.736 52.3882V33.4067C157.736 32.3469 157.627 31.4522 157.397 30.7502C157.167 30.0482 156.815 29.4976 156.314 29.1122C155.813 28.7268 155.109 28.6992 154.188 29.0021C153.267 29.3049 152.184 30.0206 150.938 31.1356L150.193 28.8507L162.15 20.4955L162.123 20.5093ZM158.386 12.1542C159.577 12.1542 160.62 11.755 161.528 10.9429C162.421 10.1308 162.868 9.01583 162.868 7.59807C162.868 6.18032 162.421 5.06538 161.528 4.25327C160.634 3.44116 159.591 3.04198 158.386 3.04198C157.181 3.04198 156.138 3.44116 155.244 4.25327C154.35 5.06538 153.903 6.18032 153.903 7.59807C153.903 9.01583 154.35 10.1308 155.244 10.9429C156.138 11.755 157.181 12.1542 158.386 12.1542Z" fill="white"/>
<path d="M207.705 28.8644V52.4019C207.705 53.9711 208.328 55.1411 209.574 55.8981C210.82 56.6552 212.066 57.0131 213.312 56.958H215.18V59.2429H195.748V56.958C195.951 56.958 196.222 56.958 196.574 56.9993C196.926 57.0268 197.522 56.9993 198.361 56.8892C199.201 56.7928 199.959 56.6001 200.609 56.3248C201.259 56.0495 201.855 55.5816 202.397 54.9209C202.939 54.2602 203.223 53.4343 203.223 52.4157V33.4343C203.223 30.5988 202.505 28.4928 201.056 27.1301C199.607 25.7674 197.847 25.0791 195.748 25.0791C192.809 25.0791 190.209 26.4418 187.934 29.181C185.673 31.9202 184.535 34.852 184.535 37.9904V52.4157C184.535 53.9849 185.158 55.1549 186.404 55.9119C187.65 56.669 188.896 57.0268 190.142 56.9718H192.01V59.2567H172.591V56.9718C172.794 56.9718 173.065 56.9718 173.417 57.0131C173.769 57.0406 174.379 57.0131 175.245 56.903C176.112 56.8066 176.87 56.6139 177.52 56.3386C178.17 56.0633 178.766 55.5953 179.308 54.9346C179.85 54.2739 180.134 53.448 180.134 52.4295V33.448C180.134 32.3882 180.026 31.4935 179.796 30.7915C179.565 30.0895 179.213 29.5389 178.712 29.1535C178.211 28.7681 177.507 28.7405 176.586 29.0434C175.665 29.3462 174.582 30.0619 173.336 31.1769L172.591 28.8919L186.783 20.5368L183.79 32.691C186.431 28.4377 188.936 25.3544 191.293 23.4274C193.662 21.5003 196.141 20.5368 198.727 20.5368C201.611 20.5368 203.832 21.3214 205.376 22.8906C206.92 24.4597 207.692 26.4556 207.692 28.8919L207.705 28.8644Z" fill="white"/>
<path d="M295.389 7.59807L280.75 22.4776L300.697 53.159C301.591 54.5217 302.918 55.5265 304.652 56.1597C306.399 56.7928 307.915 57.0819 309.215 57.0268L311.165 56.9443V59.2292H287.183V56.9443C287.277 56.9443 287.44 56.9443 287.67 56.9855C287.887 57.0131 288.293 57.0406 288.862 57.0681C289.431 57.0957 289.986 57.0681 290.5 57.0268C291.029 56.9718 291.624 56.903 292.288 56.7928C292.965 56.6965 293.507 56.5313 293.926 56.2973C294.346 56.0633 294.712 55.8018 295.01 55.499C295.308 55.1961 295.43 54.7694 295.389 54.2051C295.335 53.6545 295.091 53.0351 294.644 52.3882L277.46 25.8087L268.644 34.7694V52.3882C268.644 53.9573 269.565 55.1273 271.406 55.8844C273.248 56.6414 275.09 56.9993 276.931 56.9443H279.694V59.2292H252.8V56.9443C253.098 56.9443 253.49 56.9443 253.991 56.9855C254.493 57.0131 255.373 56.9855 256.646 56.8754C257.919 56.7791 259.029 56.5864 260.004 56.3111C260.979 56.0358 261.859 55.5678 262.658 54.9071C263.457 54.2464 263.85 53.4205 263.85 52.4019V6.84102C263.85 5.27185 262.929 4.10186 261.087 3.3448C259.246 2.58775 257.404 2.22987 255.562 2.28493H252.8V0H279.694V2.28493C279.396 2.28493 278.99 2.28493 278.502 2.24363C278.001 2.2161 277.121 2.24363 275.848 2.35375C274.575 2.4501 273.451 2.64281 272.49 2.9181C271.515 3.19339 270.634 3.66139 269.835 4.32209C269.036 4.98279 268.644 5.82244 268.644 6.82725V31.6724L291.651 7.59807C293.439 5.67103 293.981 4.25327 293.263 3.3448C292.545 2.43634 290.514 2.07846 287.169 2.28493V0H308.091V2.28493C304.95 2.13352 302.58 2.43634 300.955 3.19339C299.33 3.95045 297.474 5.42326 295.389 7.59807Z" fill="white"/>
<path d="M324.531 20.5093V52.4019C324.531 53.4205 324.802 54.2464 325.357 54.9071C325.899 55.5678 326.508 56.0358 327.145 56.3111C327.795 56.5864 328.54 56.7791 329.393 56.8754C330.232 56.9718 330.842 57.0131 331.18 56.9855C331.532 56.958 331.803 56.9443 332.006 56.9443V59.2292H312.587V56.9443H314.456C315.702 56.9993 316.961 56.6414 318.234 55.8844C319.507 55.1273 320.144 53.9573 320.144 52.3882V33.4067C320.144 32.3469 320.035 31.4522 319.805 30.7502C319.575 30.0482 319.223 29.4976 318.722 29.1122C318.221 28.7268 317.516 28.6992 316.596 29.0021C315.675 29.3049 314.591 30.0206 313.346 31.1356L312.601 28.8507L324.558 20.4955L324.531 20.5093ZM320.794 12.1542C321.985 12.1542 323.028 11.755 323.935 10.9429C324.829 10.1308 325.276 9.01583 325.276 7.59807C325.276 6.18032 324.829 5.06538 323.935 4.25327C323.042 3.44116 321.999 3.04198 320.794 3.04198C319.588 3.04198 318.559 3.44116 317.652 4.25327C316.758 5.06538 316.311 6.18032 316.311 7.59807C316.311 9.01583 316.758 10.1308 317.652 10.9429C318.546 11.755 319.588 12.1542 320.794 12.1542Z" fill="white"/>
<path d="M392.525 28.8644V52.4019C392.525 53.9711 393.148 55.1411 394.394 55.8981C395.639 56.6552 396.885 57.0131 398.131 56.958H400V59.2429H380.649V56.958C380.852 56.958 381.123 56.958 381.475 56.9993C381.827 57.0268 382.423 56.9993 383.262 56.8892C384.102 56.7928 384.86 56.6001 385.497 56.3248C386.147 56.0495 386.742 55.5816 387.284 54.9209C387.826 54.2602 388.11 53.4343 388.11 52.4157V33.4343C388.11 30.5988 387.393 28.4928 385.944 27.1301C384.495 25.7674 382.734 25.0791 380.635 25.0791C377.697 25.0791 375.083 26.4418 372.794 29.181C370.506 31.9202 369.355 34.852 369.355 37.9904V52.4157C369.355 53.9849 369.978 55.1549 371.224 55.9119C372.469 56.669 373.715 57.0268 374.961 56.9718H376.83V59.2567H357.411V56.9718C357.614 56.9718 357.885 56.9718 358.237 57.0131C358.589 57.0406 359.185 57.0131 360.024 56.903C360.864 56.8066 361.622 56.6139 362.272 56.3386C362.922 56.0633 363.518 55.5953 364.06 54.9346C364.602 54.2739 364.886 53.448 364.886 52.4295V33.448C364.886 30.6125 364.155 28.5065 362.719 27.1438C361.27 25.7811 359.51 25.0929 357.411 25.0929C354.472 25.0929 351.872 26.4556 349.597 29.1948C347.336 31.9339 346.198 34.8658 346.198 38.0041V52.4295C346.198 53.9986 346.821 55.1686 348.067 55.9257C349.313 56.6827 350.559 57.0406 351.804 56.9855H353.673V59.2705H334.254V56.9855C334.457 56.9855 334.728 56.9855 335.08 57.0268C335.432 57.0544 336.028 57.0268 336.868 56.9167C337.707 56.8204 338.466 56.6277 339.116 56.3524C339.766 56.0771 340.362 55.6091 340.903 54.9484C341.445 54.2877 341.729 53.4618 341.729 52.4432V33.4618C341.729 32.044 341.54 30.9153 341.174 30.0757C340.795 29.2361 340.091 28.8644 339.048 28.9332C338.005 29.0158 336.651 29.7591 335.013 31.1769L334.268 28.8919L348.46 20.5368L345.467 32.691C348.108 28.4928 350.626 25.4095 353.01 23.4687C355.407 21.5141 357.885 20.5506 360.485 20.5506C363.329 20.5506 365.509 21.3352 367.066 22.9043C368.61 24.4735 369.382 26.4694 369.382 28.9057V31.5623C371.874 27.7632 374.257 24.9828 376.518 23.2072C378.78 21.4315 381.136 20.5506 383.574 20.5506C386.458 20.5506 388.679 21.3352 390.223 22.9043C391.767 24.4735 392.538 26.4694 392.538 28.9057L392.525 28.8644Z" fill="white"/>
</svg>
