<svg width="20" height="20" viewBox="0 0 20 20" fill="none" xmlns="http://www.w3.org/2000/svg">
<g clip-path="url(#clip0_2874_11177)">
<path d="M8.5 12.5C10.7091 12.5 12.5 10.7091 12.5 8.5C12.5 6.29086 10.7091 4.5 8.5 4.5C6.29086 4.5 4.5 6.29086 4.5 8.5C4.5 10.7091 6.29086 12.5 8.5 12.5Z" stroke="black"/>
<path d="M8.5 12.5C10.7091 12.5 12.5 10.7091 12.5 8.5C12.5 6.29086 10.7091 4.5 8.5 4.5C6.29086 4.5 4.5 6.29086 4.5 8.5C4.5 10.7091 6.29086 12.5 8.5 12.5Z" stroke="#191919" stroke-opacity="0.2"/>
<path d="M11.793 11.0859L11.0859 11.793L14.6861 15.3931L15.3932 14.686L11.793 11.0859Z" fill="black"/>
</g>
<defs>
<clipPath id="clip0_2874_11177">
<rect width="12" height="12" fill="white" transform="translate(4 4)"/>
</clipPath>
</defs>
</svg>
